<svg xmlns="http://www.w3.org/2000/svg" viewBox="0 0 287.8 100.13"><defs><style>.cls-1{fill:#69c3c4}.cls-2{fill:#1e1a34}</style></defs><title>machine-compare-full-colour</title><g id="Layer_2" data-name="Layer 2"><g id="Layer_1-2" data-name="Layer 1"><path class="cls-1" d="M40.05 18.75v20.13h-8.79v-20a7 7 0 0 0-7-7H8.79v27H0V3.09h24.39a15.66 15.66 0 0 1 15.66 15.66z"/><path class="cls-2" d="M94.41 3.34H101v35.54h-8.83V21.06l-7.9 12.18h-4.91L71.42 21v17.92h-8.78V3.34h6.58l12.6 19zm10.9 22.84c0-7.57 5.75-13.32 12.59-13.32a12.16 12.16 0 0 1 6.95 2v-1.3h8.47v25.32h-8.47v-1.36a12.11 12.11 0 0 1-6.95 2c-6.84.04-12.59-5.81-12.59-13.34zm8.31 0a6 6 0 0 0 6 6.17 6.57 6.57 0 0 0 5.22-2.25v-7.84a6.59 6.59 0 0 0-5.21-2.26 6 6 0 0 0-6.01 6.18zm37.51 13.38c7 0 12.38-4.54 13-11.08h-8a4.85 4.85 0 0 1-5 3.92c-3.66 0-5.8-2.77-5.8-6.22s2.14-6.16 5.8-6.16a4.85 4.85 0 0 1 5 3.92h8c-.63-6.54-6-11.08-13-11.08-7.95 0-13.85 5.64-13.85 13.32s5.9 13.38 13.85 13.38zm34.8-13.79v13.11h8.47V24.41c0-7.22-4.39-11.55-10.77-11.55a11.15 11.15 0 0 0-6.95 2.35V1.78h-8.52v37.1h8.52V22.94a6.38 6.38 0 0 1 4.6-2.4c2.82 0 4.65 1.62 4.65 5.23zM203.33 0a4.78 4.78 0 1 0 0 9.56 4.81 4.81 0 0 0 5-4.75 4.83 4.83 0 0 0-5-4.81zm-4.18 38.88h8.46V13.54h-8.46zm29.51-26a11.13 11.13 0 0 0-6.95 2.35v-1.69h-8.52v25.34h8.52V22.94a6.35 6.35 0 0 1 4.6-2.4c2.82 0 4.65 1.62 4.65 5.23v13.11h8.46V24.41c0-7.22-4.42-11.55-10.76-11.55zm15 13.32c0-7.68 5.39-13.32 13.23-13.32 8.93 0 14.32 6.37 13.06 15.36h-18.37a5.45 5.45 0 0 0 5.75 4.65c1.88 0 3-.41 3.76-1.36h8.57c-1.51 5-6.22 8.05-12.18 8.05-8.31-.02-13.85-5.66-13.85-13.4zm8.05-2.82h10.56c-.47-2.93-2.3-4.23-5.17-4.23a5.2 5.2 0 0 0-5.42 4.21zM80.56 60.05a8.43 8.43 0 0 1 8.78 7.16h9.1C97.29 58 90.28 51.79 80.62 51.79c-10.72 0-18.82 7.73-18.82 18.45s8.1 18.45 18.82 18.45c9.66 0 16.67-6.22 17.82-15.42h-9.1a8.44 8.44 0 0 1-8.78 7.16c-5.8 0-9.82-4.29-9.82-10.19s4.02-10.19 9.82-10.19zM129 75.36c0 7.84-5.75 13.33-13.9 13.33s-14-5.49-14-13.33S107 62 115.12 62 129 67.57 129 75.36zm-8 0c0-3.66-2.45-6.27-5.95-6.27s-6 2.61-6 6.27 2.45 6.27 6 6.27 6.02-2.56 6.02-6.27zM163.66 62a12.18 12.18 0 0 0-8.42 3.14 10.88 10.88 0 0 0-14.24-.91v-1.57h-8.51V88H141V71.81a5.43 5.43 0 0 1 4.39-2.15c2.15 0 3.92 1 3.92 4.45V88h8.47V73a13.77 13.77 0 0 0-.05-1.46 5.21 5.21 0 0 1 4.18-1.94c2.4 0 4.18 1.26 4.18 4.71V88h8.47V73.32C174.53 66 170.24 62 163.66 62zm43.51 13.33c0 7.52-5.75 13.22-12.6 13.22a12.9 12.9 0 0 1-6.9-1.88v13.48h-8.52V62.66h8.52V64a12.9 12.9 0 0 1 6.9-1.89c6.85-.03 12.6 5.62 12.6 13.2zm-8.31 0a6.05 6.05 0 0 0-6-6.33 6.65 6.65 0 0 0-5.23 2.36v7.94a6.58 6.58 0 0 0 5.23 2.3 6 6 0 0 0 6-6.29zm30.47-12.65h8.47V88h-8.47v-1.35a12.18 12.18 0 0 1-7 2c-6.85 0-12.6-5.86-12.6-13.38S215.53 62 222.38 62a12.09 12.09 0 0 1 7 2zm0 8.73a6.59 6.59 0 0 0-5.23-2.25 6.17 6.17 0 0 0 0 12.33 6.61 6.61 0 0 0 5.23-2.24zm21.77-8.73h-8.52V88h8.52V73.48c2-1.94 4.6-3 8.73-3.19v-8.05a12.66 12.66 0 0 0-8.73 3.14zm36.52 14.69h-18.35A5.46 5.46 0 0 0 275 82c1.88 0 3-.42 3.77-1.36h8.57c-1.52 5-6.22 8-12.18 8-8.31 0-13.85-5.65-13.85-13.38S266.71 62 274.55 62c8.94 0 14.32 6.36 13.07 15.35zm-7.68-4.86c-.47-2.93-2.3-4.24-5.18-4.24a5.19 5.19 0 0 0-5.38 4.24zM31.26 79.33H15.81a7 7 0 0 1-7-7v-20H0v20.14a15.66 15.66 0 0 0 15.66 15.65h24.39V52.33h-8.79z"/></g></g></svg>